# xmcd CD database file
#
# Track frame offsets:
#       150
#       19625
#       41945
#       73470
#       94530
#       110932
#       120077
#       128140
#       145942
#       160145
#       179725
#       200435
#       220435
#       249705
#
# Disc length: 3551 seconds
#
# Revision: 10
# Processed by: cddbd v1.5.2PL0 Copyright (c) Steve Scherf et al.
# Submitted via: jack 3.1.1
#
DISCID=d80ddd0e
DTITLE=Mike Oldfield - The Essential
DYEAR=1997
DGENRE=New Age
TTITLE0=Tubular Bells (Excerpt)
TTITLE1=Hergest Ridge (Excerpt)
TTITLE2=Ommadawn (Excerpt)
TTITLE3=Incantations (Excerpt)
TTITLE4=Moonlight Shadow
TTITLE5=Portsmouth
TTITLE6=Good News (From "The Killing Fields")
TTITLE7=Sentinel (Tubular Bells II) Remix
TTITLE8=The Bell (Remix)
TTITLE9=Let There Be Light
TTITLE10=Only Time Will Tell
TTITLE11=The Voyager
TTITLE12=Women of Ireland
TTITLE13=Tubular Bells III (Excerpt)
EXTD=\nYEAR: 1997  ID3G:  10
EXTT0=
EXTT1=
EXTT2=
EXTT3=
EXTT4=
EXTT5=
EXTT6=
EXTT7=
EXTT8=
EXTT9=
EXTT10=
EXTT11=
EXTT12=
EXTT13=
PLAYORDER=
